<svg xmlns:dc="http://purl.org/dc/elements/1.1/" xmlns:cc="http://creativecommons.org/ns#" xmlns:rdf="http://www.w3.org/1999/02/22-rdf-syntax-ns#" xmlns:svg="http://www.w3.org/2000/svg" xmlns="http://www.w3.org/2000/svg" xmlns:sodipodi="http://sodipodi.sourceforge.net/DTD/sodipodi-0.dtd" xmlns:inkscape="http://www.inkscape.org/namespaces/inkscape" version="1.1" x="0px" y="0px" viewBox="0 0 100 125"><g transform="translate(0,-952.36217)"><path style="font-size:medium;font-style:normal;font-variant:normal;font-weight:normal;font-stretch:normal;text-indent:0;text-align:start;text-decoration:none;line-height:normal;letter-spacing:normal;word-spacing:normal;text-transform:none;direction:ltr;block-progression:tb;writing-mode:lr-tb;text-anchor:start;baseline-shift:baseline;opacity:1;color:#000000;fill:#000000;fill-opacity:1;stroke:none;stroke-width:4;marker:none;visibility:visible;display:inline;overflow:visible;enable-background:accumulate;font-family:Sans;-inkscape-font-specification:Sans" d="M 49.8125 14 A 2.0021961 2.0021961 0 1 0 50 18 C 67.696795 18 82 32.30318 82 50 C 82 67.6967 67.69679 82 50 82 C 32.30321 82 18 67.6967 18 50 C 18 34.93062 28.384205 22.32122 42.375 18.90625 A 2.0085875 2.0085875 0 1 0 41.4375 15 C 25.684717 18.84505 14 33.08982 14 50 C 14 69.8585 30.141438 86 50 86 C 69.858562 86 86 69.8585 86 50 C 86 30.14142 69.858557 14 50 14 A 2.0002 2.0002 0 0 0 49.8125 14 z M 50 30 C 43.948284 30 39 34.57173 39 41 C 39 44.20074 40.221471 46.63565 41.25 48.53125 C 42.253576 50.38085 42.934466 51.70585 42.96875 52.90625 C 42.852333 53.01865 42.553039 53.21785 42.0625 53.46875 C 41.041759 53.99095 39.396788 54.58695 37.65625 55.40625 C 35.915712 56.22555 34.031136 57.2967 32.53125 59 C 31.031364 60.7032 30 63.0826 30 66 A 2.0002 2.0002 0 0 0 32 68 L 68 68 A 2.0002 2.0002 0 0 0 70 66 C 70 63.0826 68.968636 60.7032 67.46875 59 C 65.968864 57.2967 64.084288 56.22555 62.34375 55.40625 C 60.603212 54.58695 58.958241 53.99095 57.9375 53.46875 C 57.446961 53.21785 57.147667 53.01865 57.03125 52.90625 C 57.06553 51.70585 57.746424 50.38085 58.75 48.53125 C 59.778529 46.63565 61 44.20074 61 41 C 61 34.57173 56.051716 30 50 30 z M 50 34 C 54.232202 34 57 36.44517 57 41 C 57 43.21617 56.221471 44.83454 55.25 46.625 C 54.278529 48.41543 53 50.3859 53 53 C 53 54.0442 53.517221 55.03055 54.125 55.65625 C 54.732779 56.28195 55.416621 56.66885 56.125 57.03125 C 57.541759 57.75605 59.146788 58.32075 60.65625 59.03125 C 62.165712 59.74185 63.531136 60.59155 64.46875 61.65625 C 65.036194 62.30065 65.427092 63.0858 65.6875 64 L 34.3125 64 C 34.572908 63.0858 34.963806 62.30065 35.53125 61.65625 C 36.468864 60.59155 37.834288 59.74185 39.34375 59.03125 C 40.853212 58.32075 42.458241 57.75605 43.875 57.03125 C 44.583379 56.66885 45.267221 56.28195 45.875 55.65625 C 46.482779 55.03055 47 54.0442 47 53 C 47 50.3859 45.721471 48.41543 44.75 46.625 C 43.778529 44.83454 43 43.21617 43 41 C 43 36.44517 45.767798 34 50 34 z " transform="translate(0,952.36217)"/></g><text x="0" y="115" fill="#000000" font-size="5px" font-weight="bold" font-family="'Helvetica Neue', Helvetica, Arial-Unicode, Arial, Sans-serif">Created by emma mitchell</text><text x="0" y="120" fill="#000000" font-size="5px" font-weight="bold" font-family="'Helvetica Neue', Helvetica, Arial-Unicode, Arial, Sans-serif">from the Noun Project</text></svg>